<mxfile host="app.diagrams.net" agent="Mozilla/5.0 (Windows NT 10.0; Win64; x64) AppleWebKit/537.36 (KHTML, like Gecko) Chrome/136.0.0.0 Safari/537.36" version="27.1.0">
  <diagram name="第 1 页" id="oopn0pdFhTOcJvkMdKDm">
    <mxGraphModel dx="946" dy="563" grid="1" gridSize="10" guides="1" tooltips="1" connect="1" arrows="1" fold="1" page="1" pageScale="1" pageWidth="827" pageHeight="1169" math="0" shadow="0">
      <root>
        <mxCell id="0" />
        <mxCell id="1" parent="0" />
        <UserObject label="[Adapting to Climate Risk? Local Population Dynamics in the United States]&lt;div&gt;Studies the relationship between population growth and high risk area, trying to reveal smaller scale of system functions&lt;/div&gt;" link="https://link.springer.com/article/10.1007/s41885-024-00141-9" id="X0_J-GMt4GQheTyJbu3o-1">
          <mxCell style="rounded=0;whiteSpace=wrap;html=1;" vertex="1" parent="1">
            <mxGeometry x="220" y="60" width="250" height="130" as="geometry" />
          </mxCell>
        </UserObject>
        <UserObject label="[The effect of natural disasters on economic activity in US counties: A century of data]&lt;div&gt;Studies the relationship between climate risk and local economy&lt;/div&gt;" link="https://www.sciencedirect.com/science/article/pii/S0094119020300280" id="X0_J-GMt4GQheTyJbu3o-3">
          <mxCell style="rounded=0;whiteSpace=wrap;html=1;" vertex="1" parent="1">
            <mxGeometry x="220" y="250" width="250" height="140" as="geometry" />
          </mxCell>
        </UserObject>
        <mxCell id="X0_J-GMt4GQheTyJbu3o-4" value="" style="rounded=0;whiteSpace=wrap;html=1;" vertex="1" parent="1">
          <mxGeometry x="590" y="50" width="120" height="60" as="geometry" />
        </mxCell>
      </root>
    </mxGraphModel>
  </diagram>
</mxfile>
